<mxfile host="app.diagrams.net" agent="Mozilla/5.0 (Windows NT 10.0; Win64; x64) AppleWebKit/537.36 (KHTML, like Gecko) Chrome/140.0.0.0 Safari/537.36" version="28.2.4">
  <diagram name="Page-1" id="4c1rVNi9UevcLR-LI9Ch">
    <mxGraphModel dx="918" dy="454" grid="1" gridSize="10" guides="1" tooltips="1" connect="1" arrows="1" fold="1" page="1" pageScale="1" pageWidth="850" pageHeight="1100" background="#ffffff" math="0" shadow="0">
      <root>
        <mxCell id="0" />
        <mxCell id="1" parent="0" />
        <mxCell id="SOsQZbis1N3-3SlKeptC-1" value="" style="rounded=1;whiteSpace=wrap;html=1;glass=0;shadow=0;strokeWidth=2;labelBackgroundColor=none;sketch=1;curveFitting=1;jiggle=2;" parent="1" vertex="1">
          <mxGeometry x="100" y="50" width="170" height="130" as="geometry" />
        </mxCell>
        <mxCell id="SOsQZbis1N3-3SlKeptC-3" value="Accueil" style="text;html=1;align=center;verticalAlign=middle;whiteSpace=wrap;rounded=0;labelBackgroundColor=none;sketch=1;curveFitting=1;jiggle=2;" parent="1" vertex="1">
          <mxGeometry x="150" y="60" width="60" height="30" as="geometry" />
        </mxCell>
        <mxCell id="SOsQZbis1N3-3SlKeptC-4" value="&lt;div&gt;&lt;ul&gt;&lt;li&gt;Se connecter&lt;/li&gt;&lt;li&gt;Creer un Compte&lt;/li&gt;&lt;li&gt;Quitter&lt;/li&gt;&lt;/ul&gt;&lt;/div&gt;" style="text;html=1;align=left;verticalAlign=middle;whiteSpace=wrap;rounded=0;labelBackgroundColor=none;sketch=1;curveFitting=1;jiggle=2;" parent="1" vertex="1">
          <mxGeometry x="100" y="95" width="150" height="60" as="geometry" />
        </mxCell>
        <mxCell id="SOsQZbis1N3-3SlKeptC-7" value="" style="endArrow=none;html=1;rounded=0;labelBackgroundColor=none;fontColor=default;sketch=1;curveFitting=1;jiggle=2;" parent="1" edge="1">
          <mxGeometry width="50" height="50" relative="1" as="geometry">
            <mxPoint x="245" y="90" as="sourcePoint" />
            <mxPoint x="115" y="90" as="targetPoint" />
          </mxGeometry>
        </mxCell>
        <mxCell id="SOsQZbis1N3-3SlKeptC-17" value="" style="rounded=1;whiteSpace=wrap;html=1;glass=0;shadow=0;strokeWidth=2;labelBackgroundColor=none;sketch=1;curveFitting=1;jiggle=2;" parent="1" vertex="1">
          <mxGeometry x="340" y="50" width="170" height="130" as="geometry" />
        </mxCell>
        <mxCell id="SOsQZbis1N3-3SlKeptC-18" value="" style="endArrow=none;html=1;rounded=0;labelBackgroundColor=none;fontColor=default;sketch=1;curveFitting=1;jiggle=2;" parent="1" edge="1">
          <mxGeometry width="50" height="50" relative="1" as="geometry">
            <mxPoint x="485" y="90" as="sourcePoint" />
            <mxPoint x="355" y="90" as="targetPoint" />
          </mxGeometry>
        </mxCell>
        <mxCell id="SOsQZbis1N3-3SlKeptC-19" value="" style="rounded=1;whiteSpace=wrap;html=1;glass=0;shadow=0;strokeWidth=2;labelBackgroundColor=none;strokeColor=#000000;sketch=1;curveFitting=1;jiggle=2;" parent="1" vertex="1">
          <mxGeometry x="580" y="50" width="170" height="130" as="geometry" />
        </mxCell>
        <mxCell id="SOsQZbis1N3-3SlKeptC-20" value="" style="endArrow=none;html=1;rounded=0;labelBackgroundColor=none;fontColor=default;sketch=1;curveFitting=1;jiggle=2;" parent="1" edge="1">
          <mxGeometry width="50" height="50" relative="1" as="geometry">
            <mxPoint x="725" y="90" as="sourcePoint" />
            <mxPoint x="595" y="90" as="targetPoint" />
          </mxGeometry>
        </mxCell>
        <mxCell id="SOsQZbis1N3-3SlKeptC-21" value="Menu principal" style="text;html=1;align=center;verticalAlign=middle;whiteSpace=wrap;rounded=0;labelBackgroundColor=none;sketch=1;curveFitting=1;jiggle=2;" parent="1" vertex="1">
          <mxGeometry x="378" y="60" width="95" height="30" as="geometry" />
        </mxCell>
        <mxCell id="SOsQZbis1N3-3SlKeptC-22" value="&lt;ul&gt;&lt;li&gt;&lt;font style=&quot;font-size: 9px;&quot;&gt;Demarrer une converstion&lt;/font&gt;&lt;/li&gt;&lt;li&gt;&lt;font style=&quot;font-size: 9px;&quot;&gt;Historiques de Conversation&lt;/font&gt;&lt;/li&gt;&lt;li&gt;&lt;span style=&quot;font-size: 9px; background-color: transparent; color: light-dark(rgb(0, 0, 0), rgb(255, 255, 255));&quot;&gt;Se déconnecter&lt;/span&gt;&lt;/li&gt;&lt;li&gt;&lt;font style=&quot;font-size: 9px;&quot;&gt;Supprimer mon compte&lt;/font&gt;&lt;/li&gt;&lt;/ul&gt;" style="text;html=1;align=left;verticalAlign=middle;whiteSpace=wrap;rounded=0;labelBackgroundColor=none;sketch=1;curveFitting=1;jiggle=2;" parent="1" vertex="1">
          <mxGeometry x="340" y="95" width="170" height="70" as="geometry" />
        </mxCell>
        <mxCell id="SOsQZbis1N3-3SlKeptC-23" value="&lt;ul&gt;&lt;li&gt;&lt;font size=&quot;1&quot;&gt;Voir l&#39;historique&lt;/font&gt;&lt;/li&gt;&lt;li&gt;&lt;font size=&quot;1&quot;&gt;Rechercher une conversation&lt;/font&gt;&lt;/li&gt;&lt;li&gt;&lt;font size=&quot;1&quot;&gt;Retour&lt;/font&gt;&lt;/li&gt;&lt;/ul&gt;" style="text;html=1;align=left;verticalAlign=middle;whiteSpace=wrap;rounded=0;labelBackgroundColor=none;sketch=1;curveFitting=1;jiggle=2;" parent="1" vertex="1">
          <mxGeometry x="570" y="87.5" width="190" height="75" as="geometry" />
        </mxCell>
        <mxCell id="SOsQZbis1N3-3SlKeptC-24" value="Historique de conversation" style="text;html=1;align=center;verticalAlign=middle;whiteSpace=wrap;rounded=0;labelBackgroundColor=none;sketch=1;curveFitting=1;jiggle=2;" parent="1" vertex="1">
          <mxGeometry x="592.5" y="57.5" width="145" height="30" as="geometry" />
        </mxCell>
        <mxCell id="SOsQZbis1N3-3SlKeptC-25" value="" style="rounded=1;whiteSpace=wrap;html=1;glass=0;shadow=0;strokeWidth=2;labelBackgroundColor=none;sketch=1;curveFitting=1;jiggle=2;" parent="1" vertex="1">
          <mxGeometry x="100" y="220" width="170" height="130" as="geometry" />
        </mxCell>
        <mxCell id="SOsQZbis1N3-3SlKeptC-26" value="Se connecter" style="text;html=1;align=center;verticalAlign=middle;whiteSpace=wrap;rounded=0;labelBackgroundColor=none;sketch=1;curveFitting=1;jiggle=2;" parent="1" vertex="1">
          <mxGeometry x="135" y="230" width="90" height="30" as="geometry" />
        </mxCell>
        <mxCell id="SOsQZbis1N3-3SlKeptC-28" value="" style="endArrow=none;html=1;rounded=0;labelBackgroundColor=none;fontColor=default;sketch=1;curveFitting=1;jiggle=2;" parent="1" edge="1">
          <mxGeometry width="50" height="50" relative="1" as="geometry">
            <mxPoint x="245" y="260" as="sourcePoint" />
            <mxPoint x="115" y="260" as="targetPoint" />
          </mxGeometry>
        </mxCell>
        <mxCell id="SOsQZbis1N3-3SlKeptC-29" value="" style="rounded=1;whiteSpace=wrap;html=1;glass=0;shadow=0;strokeWidth=2;labelBackgroundColor=none;sketch=1;curveFitting=1;jiggle=2;" parent="1" vertex="1">
          <mxGeometry x="336.5" y="230" width="170" height="130" as="geometry" />
        </mxCell>
        <mxCell id="SOsQZbis1N3-3SlKeptC-30" value="" style="endArrow=none;html=1;rounded=0;labelBackgroundColor=none;fontColor=default;sketch=1;curveFitting=1;jiggle=2;" parent="1" edge="1">
          <mxGeometry width="50" height="50" relative="1" as="geometry">
            <mxPoint x="487" y="274.65999999999997" as="sourcePoint" />
            <mxPoint x="357" y="274.65999999999997" as="targetPoint" />
          </mxGeometry>
        </mxCell>
        <mxCell id="SOsQZbis1N3-3SlKeptC-33" value="Creer un Compte" style="text;html=1;align=center;verticalAlign=middle;whiteSpace=wrap;rounded=0;labelBackgroundColor=none;sketch=1;curveFitting=1;jiggle=2;" parent="1" vertex="1">
          <mxGeometry x="369" y="240" width="105" height="30" as="geometry" />
        </mxCell>
        <mxCell id="SOsQZbis1N3-3SlKeptC-38" value="&lt;div&gt;nom d&#39;utilisateur&lt;/div&gt;&lt;div&gt;&lt;span style=&quot;background-color: transparent; color: light-dark(rgb(0, 0, 0), rgb(255, 255, 255));&quot;&gt;mot de passe&lt;/span&gt;&lt;/div&gt;&lt;div&gt;&lt;span style=&quot;background-color: transparent; color: light-dark(rgb(0, 0, 0), rgb(255, 255, 255));&quot;&gt;&lt;br&gt;&lt;/span&gt;&lt;/div&gt;" style="text;html=1;align=right;verticalAlign=middle;whiteSpace=wrap;rounded=0;labelBackgroundColor=none;sketch=1;curveFitting=1;jiggle=2;" parent="1" vertex="1">
          <mxGeometry x="105" y="277.5" width="95" height="52.5" as="geometry" />
        </mxCell>
        <mxCell id="SOsQZbis1N3-3SlKeptC-39" value="&lt;div&gt;&lt;span style=&quot;background-color: transparent; color: light-dark(rgb(0, 0, 0), rgb(255, 255, 255));&quot;&gt;nom&lt;/span&gt;&lt;/div&gt;&lt;div&gt;nom d&#39;utilisateur&lt;/div&gt;mot de passe" style="text;html=1;align=right;verticalAlign=middle;whiteSpace=wrap;rounded=0;labelBackgroundColor=none;sketch=1;curveFitting=1;jiggle=2;" parent="1" vertex="1">
          <mxGeometry x="342" y="276.25" width="95" height="61.25" as="geometry" />
        </mxCell>
        <mxCell id="SOsQZbis1N3-3SlKeptC-40" value="" style="rounded=1;whiteSpace=wrap;html=1;glass=0;shadow=0;strokeWidth=2;labelBackgroundColor=none;strokeColor=#000000;sketch=1;curveFitting=1;jiggle=2;" parent="1" vertex="1">
          <mxGeometry x="580" y="400" width="170" height="130" as="geometry" />
        </mxCell>
        <mxCell id="SOsQZbis1N3-3SlKeptC-41" value="" style="endArrow=none;html=1;rounded=0;labelBackgroundColor=none;fontColor=default;sketch=1;curveFitting=1;jiggle=2;" parent="1" edge="1">
          <mxGeometry width="50" height="50" relative="1" as="geometry">
            <mxPoint x="725" y="440" as="sourcePoint" />
            <mxPoint x="595" y="440" as="targetPoint" />
          </mxGeometry>
        </mxCell>
        <mxCell id="SOsQZbis1N3-3SlKeptC-42" value="&lt;ul&gt;&lt;li&gt;&lt;span style=&quot;font-size: x-small; background-color: transparent; color: light-dark(rgb(0, 0, 0), rgb(255, 255, 255));&quot;&gt;Par Mot clés&lt;/span&gt;&lt;/li&gt;&lt;li&gt;&lt;font size=&quot;1&quot;&gt;Par Date&lt;/font&gt;&lt;/li&gt;&lt;li&gt;&lt;font size=&quot;1&quot;&gt;Retour&lt;/font&gt;&lt;/li&gt;&lt;/ul&gt;" style="text;html=1;align=left;verticalAlign=middle;whiteSpace=wrap;rounded=0;labelBackgroundColor=none;sketch=1;curveFitting=1;jiggle=2;" parent="1" vertex="1">
          <mxGeometry x="580" y="437.5" width="120" height="75" as="geometry" />
        </mxCell>
        <mxCell id="SOsQZbis1N3-3SlKeptC-43" value="&lt;span style=&quot;font-size: x-small; background-color: transparent; color: light-dark(rgb(0, 0, 0), rgb(255, 255, 255));&quot;&gt;Rechercher une conversation&lt;/span&gt;" style="text;html=1;align=center;verticalAlign=middle;whiteSpace=wrap;rounded=0;labelBackgroundColor=none;sketch=1;curveFitting=1;jiggle=2;" parent="1" vertex="1">
          <mxGeometry x="592.5" y="407.5" width="145" height="30" as="geometry" />
        </mxCell>
        <mxCell id="SOsQZbis1N3-3SlKeptC-48" value="" style="rounded=1;whiteSpace=wrap;html=1;glass=0;shadow=0;strokeWidth=2;labelBackgroundColor=none;strokeColor=#000000;sketch=1;curveFitting=1;jiggle=2;" parent="1" vertex="1">
          <mxGeometry x="100" y="400" width="170" height="130" as="geometry" />
        </mxCell>
        <mxCell id="SOsQZbis1N3-3SlKeptC-49" value="" style="endArrow=none;html=1;rounded=0;labelBackgroundColor=none;fontColor=default;sketch=1;curveFitting=1;jiggle=2;" parent="1" edge="1">
          <mxGeometry width="50" height="50" relative="1" as="geometry">
            <mxPoint x="245" y="440" as="sourcePoint" />
            <mxPoint x="115" y="440" as="targetPoint" />
          </mxGeometry>
        </mxCell>
        <mxCell id="SOsQZbis1N3-3SlKeptC-50" value="&lt;span style=&quot;background-color: transparent; color: light-dark(rgb(0, 0, 0), rgb(255, 255, 255)); font-size: x-small;&quot;&gt;Mot clés/ Date :&lt;/span&gt;" style="text;html=1;align=right;verticalAlign=middle;whiteSpace=wrap;rounded=0;labelBackgroundColor=none;sketch=1;curveFitting=1;jiggle=2;" parent="1" vertex="1">
          <mxGeometry x="100" y="461.25" width="90" height="22.5" as="geometry" />
        </mxCell>
        <mxCell id="SOsQZbis1N3-3SlKeptC-51" value="&lt;span style=&quot;font-size: x-small; background-color: transparent; color: light-dark(rgb(0, 0, 0), rgb(255, 255, 255));&quot;&gt;Par Mot clés/ Par Date&lt;/span&gt;" style="text;html=1;align=center;verticalAlign=middle;whiteSpace=wrap;rounded=0;labelBackgroundColor=none;sketch=1;curveFitting=1;jiggle=2;" parent="1" vertex="1">
          <mxGeometry x="112.5" y="407.5" width="145" height="30" as="geometry" />
        </mxCell>
        <mxCell id="SOsQZbis1N3-3SlKeptC-56" value="" style="rounded=1;whiteSpace=wrap;html=1;glass=0;shadow=0;strokeWidth=2;labelBackgroundColor=none;strokeColor=#000000;sketch=1;curveFitting=1;jiggle=2;" parent="1" vertex="1">
          <mxGeometry x="333.5" y="400" width="170" height="130" as="geometry" />
        </mxCell>
        <mxCell id="SOsQZbis1N3-3SlKeptC-57" value="" style="endArrow=none;html=1;rounded=0;labelBackgroundColor=none;fontColor=default;sketch=1;curveFitting=1;jiggle=2;" parent="1" edge="1">
          <mxGeometry width="50" height="50" relative="1" as="geometry">
            <mxPoint x="478.5" y="440" as="sourcePoint" />
            <mxPoint x="348.5" y="440" as="targetPoint" />
          </mxGeometry>
        </mxCell>
        <mxCell id="SOsQZbis1N3-3SlKeptC-58" value="&lt;ul&gt;&lt;li&gt;&lt;font size=&quot;1&quot;&gt;Continuer&lt;/font&gt;&lt;/li&gt;&lt;li&gt;&lt;font size=&quot;1&quot;&gt;Configurer les paramètres&lt;/font&gt;&lt;/li&gt;&lt;li&gt;&lt;font size=&quot;1&quot;&gt;Retour&lt;/font&gt;&lt;/li&gt;&lt;/ul&gt;" style="text;html=1;align=left;verticalAlign=middle;whiteSpace=wrap;rounded=0;labelBackgroundColor=none;sketch=1;curveFitting=1;jiggle=2;" parent="1" vertex="1">
          <mxGeometry x="331.5" y="437.5" width="159.5" height="75" as="geometry" />
        </mxCell>
        <mxCell id="SOsQZbis1N3-3SlKeptC-59" value="&lt;span style=&quot;font-size: 9px; text-align: left; background-color: transparent; color: light-dark(rgb(0, 0, 0), rgb(255, 255, 255));&quot;&gt;Demarrer une converstion&lt;/span&gt;" style="text;html=1;align=center;verticalAlign=middle;whiteSpace=wrap;rounded=0;labelBackgroundColor=none;sketch=1;curveFitting=1;jiggle=2;" parent="1" vertex="1">
          <mxGeometry x="346" y="407.5" width="145" height="30" as="geometry" />
        </mxCell>
        <mxCell id="SOsQZbis1N3-3SlKeptC-66" value="" style="rounded=1;whiteSpace=wrap;html=1;glass=0;shadow=0;strokeWidth=2;labelBackgroundColor=none;strokeColor=#000000;sketch=1;curveFitting=1;jiggle=2;" parent="1" vertex="1">
          <mxGeometry x="333.5" y="563.75" width="170" height="130" as="geometry" />
        </mxCell>
        <mxCell id="SOsQZbis1N3-3SlKeptC-68" value="&lt;span style=&quot;background-color: transparent; color: light-dark(rgb(0, 0, 0), rgb(255, 255, 255)); font-size: x-small; text-align: left;&quot;&gt;Discussion&lt;/span&gt;" style="text;html=1;align=center;verticalAlign=middle;whiteSpace=wrap;rounded=0;labelBackgroundColor=none;sketch=1;curveFitting=1;jiggle=2;" parent="1" vertex="1">
          <mxGeometry x="346" y="571.25" width="145" height="30" as="geometry" />
        </mxCell>
        <mxCell id="SOsQZbis1N3-3SlKeptC-70" value="&lt;font size=&quot;1&quot; face=&quot;Helvetica&quot;&gt;[nom d&#39;utilisateur] Message 1&lt;/font&gt;" style="text;whiteSpace=wrap;html=1;fontFamily=Architects Daughter;fontSource=https%3A%2F%2Ffonts.googleapis.com%2Fcss%3Ffamily%3DArchitects%2BDaughter;sketch=1;curveFitting=1;jiggle=2;" parent="1" vertex="1">
          <mxGeometry x="347.25" y="613.75" width="142.5" height="20" as="geometry" />
        </mxCell>
        <mxCell id="SOsQZbis1N3-3SlKeptC-72" value="&lt;font face=&quot;Helvetica&quot; size=&quot;1&quot;&gt;[gpt] Message 1&lt;/font&gt;" style="text;whiteSpace=wrap;html=1;fontFamily=Architects Daughter;fontSource=https%3A%2F%2Ffonts.googleapis.com%2Fcss%3Ffamily%3DArchitects%2BDaughter;align=right;sketch=1;curveFitting=1;jiggle=2;" parent="1" vertex="1">
          <mxGeometry x="366" y="633.75" width="115" height="20" as="geometry" />
        </mxCell>
        <mxCell id="SOsQZbis1N3-3SlKeptC-73" value="&lt;font face=&quot;Helvetica&quot;&gt;...&lt;/font&gt;" style="text;whiteSpace=wrap;html=1;fontFamily=Architects Daughter;fontSource=https%3A%2F%2Ffonts.googleapis.com%2Fcss%3Ffamily%3DArchitects%2BDaughter;align=center;fontSize=20;sketch=1;curveFitting=1;jiggle=2;" parent="1" vertex="1">
          <mxGeometry x="358.5" y="641.25" width="115" height="20" as="geometry" />
        </mxCell>
        <mxCell id="SOsQZbis1N3-3SlKeptC-74" value="&lt;font size=&quot;1&quot; face=&quot;Helvetica&quot;&gt;Nouveau message:&lt;/font&gt;" style="text;whiteSpace=wrap;html=1;fontFamily=Architects Daughter;fontSource=https%3A%2F%2Ffonts.googleapis.com%2Fcss%3Ffamily%3DArchitects%2BDaughter;sketch=1;curveFitting=1;jiggle=2;" parent="1" vertex="1">
          <mxGeometry x="343.5" y="663.75" width="90" height="17.5" as="geometry" />
        </mxCell>
        <mxCell id="SOsQZbis1N3-3SlKeptC-75" value="" style="rounded=0;whiteSpace=wrap;html=1;hachureGap=4;fontFamily=Architects Daughter;fontSource=https%3A%2F%2Ffonts.googleapis.com%2Fcss%3Ffamily%3DArchitects%2BDaughter;sketch=1;curveFitting=1;jiggle=2;" parent="1" vertex="1">
          <mxGeometry x="441" y="673.75" width="50" height="7.5" as="geometry" />
        </mxCell>
        <mxCell id="SOsQZbis1N3-3SlKeptC-76" value="" style="rounded=0;whiteSpace=wrap;html=1;hachureGap=4;fontFamily=Architects Daughter;fontSource=https%3A%2F%2Ffonts.googleapis.com%2Fcss%3Ffamily%3DArchitects%2BDaughter;sketch=1;curveFitting=1;jiggle=2;" parent="1" vertex="1">
          <mxGeometry x="197.5" y="468.75" width="50" height="7.5" as="geometry" />
        </mxCell>
        <mxCell id="SOsQZbis1N3-3SlKeptC-78" value="" style="rounded=0;whiteSpace=wrap;html=1;hachureGap=4;fontFamily=Architects Daughter;fontSource=https%3A%2F%2Ffonts.googleapis.com%2Fcss%3Ffamily%3DArchitects%2BDaughter;sketch=1;curveFitting=1;jiggle=2;" parent="1" vertex="1">
          <mxGeometry x="212.5" y="282.5" width="37.5" height="7.5" as="geometry" />
        </mxCell>
        <mxCell id="SOsQZbis1N3-3SlKeptC-79" value="" style="rounded=0;whiteSpace=wrap;html=1;hachureGap=4;fontFamily=Architects Daughter;fontSource=https%3A%2F%2Ffonts.googleapis.com%2Fcss%3Ffamily%3DArchitects%2BDaughter;sketch=1;curveFitting=1;jiggle=2;" parent="1" vertex="1">
          <mxGeometry x="212.5" y="300" width="37.5" height="7.5" as="geometry" />
        </mxCell>
        <mxCell id="SOsQZbis1N3-3SlKeptC-81" value="" style="rounded=0;whiteSpace=wrap;html=1;hachureGap=4;fontFamily=Architects Daughter;fontSource=https%3A%2F%2Ffonts.googleapis.com%2Fcss%3Ffamily%3DArchitects%2BDaughter;sketch=1;curveFitting=1;jiggle=2;" parent="1" vertex="1">
          <mxGeometry x="443" y="290" width="50" height="7.5" as="geometry" />
        </mxCell>
        <mxCell id="SOsQZbis1N3-3SlKeptC-82" value="" style="rounded=0;whiteSpace=wrap;html=1;hachureGap=4;fontFamily=Architects Daughter;fontSource=https%3A%2F%2Ffonts.googleapis.com%2Fcss%3Ffamily%3DArchitects%2BDaughter;sketch=1;curveFitting=1;jiggle=2;" parent="1" vertex="1">
          <mxGeometry x="443" y="307.5" width="50" height="7.5" as="geometry" />
        </mxCell>
        <mxCell id="SOsQZbis1N3-3SlKeptC-83" value="" style="rounded=0;whiteSpace=wrap;html=1;hachureGap=4;fontFamily=Architects Daughter;fontSource=https%3A%2F%2Ffonts.googleapis.com%2Fcss%3Ffamily%3DArchitects%2BDaughter;sketch=1;curveFitting=1;jiggle=2;" parent="1" vertex="1">
          <mxGeometry x="443" y="320" width="50" height="7.5" as="geometry" />
        </mxCell>
        <mxCell id="SOsQZbis1N3-3SlKeptC-89" value="" style="rounded=1;whiteSpace=wrap;html=1;glass=0;shadow=0;strokeWidth=2;labelBackgroundColor=none;strokeColor=#000000;sketch=1;curveFitting=1;jiggle=2;" parent="1" vertex="1">
          <mxGeometry x="92.5" y="870" width="170" height="130" as="geometry" />
        </mxCell>
        <mxCell id="SOsQZbis1N3-3SlKeptC-90" value="" style="endArrow=none;html=1;rounded=0;labelBackgroundColor=none;fontColor=default;sketch=1;curveFitting=1;jiggle=2;" parent="1" edge="1">
          <mxGeometry width="50" height="50" relative="1" as="geometry">
            <mxPoint x="237.5" y="910" as="sourcePoint" />
            <mxPoint x="107.5" y="910" as="targetPoint" />
          </mxGeometry>
        </mxCell>
        <mxCell id="SOsQZbis1N3-3SlKeptC-92" value="&lt;span style=&quot;font-size: 9px; background-color: transparent; color: light-dark(rgb(0, 0, 0), rgb(255, 255, 255));&quot;&gt;Voir les staistiques&lt;/span&gt;" style="text;html=1;align=center;verticalAlign=middle;whiteSpace=wrap;rounded=0;labelBackgroundColor=none;sketch=1;curveFitting=1;jiggle=2;" parent="1" vertex="1">
          <mxGeometry x="101.5" y="877.5" width="145" height="30" as="geometry" />
        </mxCell>
        <mxCell id="SOsQZbis1N3-3SlKeptC-93" value="&lt;span style=&quot;background-color: transparent; color: light-dark(rgb(0, 0, 0), rgb(255, 255, 255)); font-size: x-small;&quot;&gt;Nom Stats 1 VAL&lt;/span&gt;&lt;br&gt;&lt;span style=&quot;font-size: x-small;&quot;&gt;Nom Stats 2 VAL&lt;/span&gt;&lt;br&gt;&lt;span style=&quot;background-color: transparent; color: light-dark(rgb(0, 0, 0), rgb(255, 255, 255)); font-size: x-small;&quot;&gt;...&lt;/span&gt;&lt;br&gt;&lt;span style=&quot;font-size: x-small; background-color: transparent; color: light-dark(rgb(0, 0, 0), rgb(255, 255, 255));&quot;&gt;Retour&lt;/span&gt;" style="text;html=1;align=left;verticalAlign=middle;whiteSpace=wrap;rounded=0;labelBackgroundColor=none;sketch=1;curveFitting=1;jiggle=2;" parent="1" vertex="1">
          <mxGeometry x="110" y="912.5" width="180" height="75" as="geometry" />
        </mxCell>
        <mxCell id="gOaZOI50r9FXYh2yy26h-1" value="" style="rounded=1;whiteSpace=wrap;html=1;glass=0;shadow=0;strokeWidth=2;labelBackgroundColor=none;strokeColor=#000000;sketch=1;curveFitting=1;jiggle=2;" parent="1" vertex="1">
          <mxGeometry x="92.5" y="562.5" width="177.5" height="127.5" as="geometry" />
        </mxCell>
        <mxCell id="gOaZOI50r9FXYh2yy26h-2" value="&lt;span style=&quot;background-color: transparent; color: light-dark(rgb(0, 0, 0), rgb(255, 255, 255));&quot;&gt;temperature - [&lt;/span&gt;valeurs par defaut&lt;span style=&quot;background-color: transparent; color: light-dark(rgb(0, 0, 0), rgb(255, 255, 255));&quot;&gt;]:&lt;/span&gt;&lt;br&gt;&lt;span style=&quot;background-color: transparent; color: light-dark(rgb(0, 0, 0), rgb(255, 255, 255));&quot;&gt;top_p - [valeurs par defaut]&lt;/span&gt;&lt;div&gt;stop - [valeurs par defaut]&lt;/div&gt;&lt;div&gt;max_tokkens - [valeurs par defaut]&lt;br&gt;&lt;span style=&quot;background-color: transparent; color: light-dark(rgb(0, 0, 0), rgb(255, 255, 255));&quot;&gt;...&lt;/span&gt;&lt;/div&gt;" style="text;html=1;align=right;verticalAlign=middle;whiteSpace=wrap;rounded=0;labelBackgroundColor=none;sketch=1;curveFitting=1;jiggle=2;fontSize=9;" parent="1" vertex="1">
          <mxGeometry x="80" y="623.75" width="157.5" height="66.25" as="geometry" />
        </mxCell>
        <mxCell id="gOaZOI50r9FXYh2yy26h-3" value="" style="rounded=0;whiteSpace=wrap;html=1;hachureGap=4;fontFamily=Architects Daughter;fontSource=https%3A%2F%2Ffonts.googleapis.com%2Fcss%3Ffamily%3DArchitects%2BDaughter;sketch=1;curveFitting=1;jiggle=2;" parent="1" vertex="1">
          <mxGeometry x="241.88" y="656.25" width="20" height="7.5" as="geometry" />
        </mxCell>
        <mxCell id="gOaZOI50r9FXYh2yy26h-4" value="" style="rounded=0;whiteSpace=wrap;html=1;hachureGap=4;fontFamily=Architects Daughter;fontSource=https%3A%2F%2Ffonts.googleapis.com%2Fcss%3Ffamily%3DArchitects%2BDaughter;sketch=1;curveFitting=1;jiggle=2;" parent="1" vertex="1">
          <mxGeometry x="242.5" y="633.75" width="20" height="7.5" as="geometry" />
        </mxCell>
        <mxCell id="gOaZOI50r9FXYh2yy26h-5" value="&lt;span style=&quot;background-color: transparent; color: light-dark(rgb(0, 0, 0), rgb(255, 255, 255)); font-size: x-small; text-align: left;&quot;&gt;Configurer les paramètres&lt;/span&gt;" style="text;html=1;align=center;verticalAlign=middle;whiteSpace=wrap;rounded=0;labelBackgroundColor=none;sketch=1;curveFitting=1;jiggle=2;" parent="1" vertex="1">
          <mxGeometry x="100" y="563.75" width="145" height="32.5" as="geometry" />
        </mxCell>
        <mxCell id="gOaZOI50r9FXYh2yy26h-6" value="" style="endArrow=none;html=1;rounded=0;labelBackgroundColor=none;fontColor=default;sketch=1;curveFitting=1;jiggle=2;" parent="1" edge="1">
          <mxGeometry width="50" height="50" relative="1" as="geometry">
            <mxPoint x="240" y="596.25" as="sourcePoint" />
            <mxPoint x="110" y="596.25" as="targetPoint" />
          </mxGeometry>
        </mxCell>
        <mxCell id="gOaZOI50r9FXYh2yy26h-8" value="" style="rounded=1;whiteSpace=wrap;html=1;glass=0;shadow=0;strokeWidth=2;labelBackgroundColor=none;strokeColor=#000000;sketch=1;curveFitting=1;jiggle=2;" parent="1" vertex="1">
          <mxGeometry x="575" y="220" width="170" height="130" as="geometry" />
        </mxCell>
        <mxCell id="gOaZOI50r9FXYh2yy26h-9" value="" style="endArrow=none;html=1;rounded=0;labelBackgroundColor=none;fontColor=default;sketch=1;curveFitting=1;jiggle=2;" parent="1" edge="1">
          <mxGeometry width="50" height="50" relative="1" as="geometry">
            <mxPoint x="720" y="260" as="sourcePoint" />
            <mxPoint x="590" y="260" as="targetPoint" />
          </mxGeometry>
        </mxCell>
        <mxCell id="gOaZOI50r9FXYh2yy26h-10" value="&lt;ol&gt;&lt;li&gt;&lt;span style=&quot;font-size: x-small; background-color: transparent; color: light-dark(rgb(0, 0, 0), rgb(255, 255, 255));&quot;&gt;Titre 1 - Date de Fin&lt;/span&gt;&lt;/li&gt;&lt;li&gt;&lt;span style=&quot;font-size: x-small; background-color: transparent; color: light-dark(rgb(0, 0, 0), rgb(255, 255, 255));&quot;&gt;Titre 2 - Date de Fin&lt;/span&gt;&lt;/li&gt;&lt;li&gt;&lt;span style=&quot;font-size: x-small; background-color: transparent; color: light-dark(rgb(0, 0, 0), rgb(255, 255, 255));&quot;&gt;...&lt;/span&gt;&lt;/li&gt;&lt;li&gt;&lt;span style=&quot;background-color: transparent; color: light-dark(rgb(0, 0, 0), rgb(255, 255, 255));&quot;&gt;Retour&lt;/span&gt;&lt;/li&gt;&lt;/ol&gt;" style="text;html=1;align=left;verticalAlign=middle;whiteSpace=wrap;rounded=0;labelBackgroundColor=none;sketch=1;curveFitting=1;jiggle=2;" parent="1" vertex="1">
          <mxGeometry x="570" y="260" width="180" height="75" as="geometry" />
        </mxCell>
        <mxCell id="gOaZOI50r9FXYh2yy26h-11" value="&lt;font size=&quot;1&quot;&gt;Voir l&#39;Historique&lt;/font&gt;" style="text;html=1;align=center;verticalAlign=middle;whiteSpace=wrap;rounded=0;labelBackgroundColor=none;sketch=1;curveFitting=1;jiggle=2;" parent="1" vertex="1">
          <mxGeometry x="587.5" y="230" width="145" height="30" as="geometry" />
        </mxCell>
        <mxCell id="gIrXdR4HEd4UZFSrmgr1-3" value="" style="rounded=1;whiteSpace=wrap;html=1;glass=0;shadow=0;strokeWidth=2;labelBackgroundColor=none;sketch=1;curveFitting=1;jiggle=2;" parent="1" vertex="1">
          <mxGeometry x="295" y="870" width="170" height="130" as="geometry" />
        </mxCell>
        <mxCell id="gIrXdR4HEd4UZFSrmgr1-4" value="" style="endArrow=none;html=1;rounded=0;labelBackgroundColor=none;fontColor=default;sketch=1;curveFitting=1;jiggle=2;" parent="1" edge="1">
          <mxGeometry width="50" height="50" relative="1" as="geometry">
            <mxPoint x="440" y="910" as="sourcePoint" />
            <mxPoint x="310" y="910" as="targetPoint" />
          </mxGeometry>
        </mxCell>
        <mxCell id="gIrXdR4HEd4UZFSrmgr1-5" value="Menu principal" style="text;html=1;align=center;verticalAlign=middle;whiteSpace=wrap;rounded=0;labelBackgroundColor=none;sketch=1;curveFitting=1;jiggle=2;" parent="1" vertex="1">
          <mxGeometry x="333" y="880" width="95" height="30" as="geometry" />
        </mxCell>
        <mxCell id="gIrXdR4HEd4UZFSrmgr1-6" value="&lt;ul&gt;&lt;li&gt;&lt;font style=&quot;font-size: 9px;&quot;&gt;Demarrer une converstion&lt;/font&gt;&lt;/li&gt;&lt;li&gt;&lt;font style=&quot;font-size: 9px;&quot;&gt;Historiques de Conversation&lt;/font&gt;&lt;/li&gt;&lt;li&gt;&lt;font style=&quot;font-size: 9px;&quot;&gt;Voir les staistiques&lt;/font&gt;&lt;/li&gt;&lt;li&gt;&lt;font style=&quot;font-size: 9px;&quot;&gt;Se déconnecter&lt;/font&gt;&lt;/li&gt;&lt;li&gt;&lt;font style=&quot;font-size: 9px;&quot;&gt;Supprimer mon compte&lt;/font&gt;&lt;/li&gt;&lt;/ul&gt;" style="text;html=1;align=left;verticalAlign=middle;whiteSpace=wrap;rounded=0;labelBackgroundColor=none;sketch=1;curveFitting=1;jiggle=2;" parent="1" vertex="1">
          <mxGeometry x="295" y="915" width="170" height="70" as="geometry" />
        </mxCell>
        <mxCell id="gIrXdR4HEd4UZFSrmgr1-7" value="" style="endArrow=none;html=1;rounded=0;labelBackgroundColor=none;fontColor=default;sketch=1;curveFitting=1;jiggle=2;" parent="1" edge="1">
          <mxGeometry width="50" height="50" relative="1" as="geometry">
            <mxPoint x="483.5" y="601.25" as="sourcePoint" />
            <mxPoint x="353.5" y="601.25" as="targetPoint" />
          </mxGeometry>
        </mxCell>
        <mxCell id="MCfE6m_02tJSyqRhz5d2-3" value="&lt;font size=&quot;1&quot;&gt;Explication du param k...&lt;/font&gt;" style="text;html=1;align=left;verticalAlign=middle;whiteSpace=wrap;rounded=0;labelBackgroundColor=none;sketch=1;curveFitting=1;jiggle=2;fontStyle=2;fillColor=none;strokeColor=default;" vertex="1" parent="1">
          <mxGeometry x="108.13" y="601.25" width="153.75" height="21.25" as="geometry" />
        </mxCell>
        <mxCell id="MCfE6m_02tJSyqRhz5d2-4" value="" style="rounded=0;whiteSpace=wrap;html=1;hachureGap=4;fontFamily=Architects Daughter;fontSource=https%3A%2F%2Ffonts.googleapis.com%2Fcss%3Ffamily%3DArchitects%2BDaughter;sketch=1;curveFitting=1;jiggle=2;" vertex="1" parent="1">
          <mxGeometry x="241.88" y="666.25" width="20" height="7.5" as="geometry" />
        </mxCell>
        <mxCell id="MCfE6m_02tJSyqRhz5d2-6" value="" style="rounded=0;whiteSpace=wrap;html=1;hachureGap=4;fontFamily=Architects Daughter;fontSource=https%3A%2F%2Ffonts.googleapis.com%2Fcss%3Ffamily%3DArchitects%2BDaughter;sketch=1;curveFitting=1;jiggle=2;" vertex="1" parent="1">
          <mxGeometry x="241.88" y="646.25" width="20" height="7.5" as="geometry" />
        </mxCell>
        <mxCell id="MCfE6m_02tJSyqRhz5d2-7" value="" style="rounded=1;whiteSpace=wrap;html=1;glass=0;shadow=0;strokeWidth=2;labelBackgroundColor=none;strokeColor=#000000;sketch=1;curveFitting=1;jiggle=2;" vertex="1" parent="1">
          <mxGeometry x="575" y="563.75" width="170" height="130" as="geometry" />
        </mxCell>
        <mxCell id="MCfE6m_02tJSyqRhz5d2-8" value="" style="endArrow=none;html=1;rounded=0;labelBackgroundColor=none;fontColor=default;sketch=1;curveFitting=1;jiggle=2;" edge="1" parent="1">
          <mxGeometry width="50" height="50" relative="1" as="geometry">
            <mxPoint x="720" y="603.75" as="sourcePoint" />
            <mxPoint x="590" y="603.75" as="targetPoint" />
          </mxGeometry>
        </mxCell>
        <mxCell id="MCfE6m_02tJSyqRhz5d2-9" value="&lt;ol&gt;&lt;li&gt;&lt;span style=&quot;font-size: x-small; background-color: transparent; color: light-dark(rgb(0, 0, 0), rgb(255, 255, 255));&quot;&gt;Titre 1 - Date de Fin&lt;/span&gt;&lt;/li&gt;&lt;li&gt;&lt;span style=&quot;font-size: x-small; background-color: transparent; color: light-dark(rgb(0, 0, 0), rgb(255, 255, 255));&quot;&gt;Titre 2 - Date de Fin&lt;/span&gt;&lt;/li&gt;&lt;li&gt;&lt;span style=&quot;font-size: x-small; background-color: transparent; color: light-dark(rgb(0, 0, 0), rgb(255, 255, 255));&quot;&gt;...&lt;/span&gt;&lt;/li&gt;&lt;li&gt;&lt;span style=&quot;background-color: transparent; color: light-dark(rgb(0, 0, 0), rgb(255, 255, 255));&quot;&gt;Retour&lt;/span&gt;&lt;/li&gt;&lt;/ol&gt;" style="text;html=1;align=left;verticalAlign=middle;whiteSpace=wrap;rounded=0;labelBackgroundColor=none;sketch=1;curveFitting=1;jiggle=2;" vertex="1" parent="1">
          <mxGeometry x="570" y="603.75" width="180" height="75" as="geometry" />
        </mxCell>
        <mxCell id="MCfE6m_02tJSyqRhz5d2-10" value="&lt;font size=&quot;1&quot;&gt;Conversation trouvées&lt;/font&gt;" style="text;html=1;align=center;verticalAlign=middle;whiteSpace=wrap;rounded=0;labelBackgroundColor=none;sketch=1;curveFitting=1;jiggle=2;" vertex="1" parent="1">
          <mxGeometry x="587.5" y="573.75" width="145" height="30" as="geometry" />
        </mxCell>
      </root>
    </mxGraphModel>
  </diagram>
</mxfile>
